<svg xmlns="http://www.w3.org/2000/svg" viewBox="0 0 512 512">
  <rect width="512" height="512" rx="96" fill="#0B5FA5"/>
  <g transform="translate(96 98) scale(9.5)">
    <path d="M12 21.35l-1.45-1.32C5.4 15.36 2 12.28 2 8.5 2 5.42 4.42 3 7.5 3c1.74 0 3.41.81 4.5 2.09C13.09 3.81 14.76 3 16.5 3 19.58 3 22 5.42 22 8.5c0 3.78-3.4 6.86-8.55 11.54L12 21.35z" fill="#FFFFFF"/>
  </g>
  <polyline points="130,304 196,304 222,238 260,346 292,268 314,304 382,304" fill="none" stroke="#0B5FA5" stroke-width="16" stroke-linecap="round" stroke-linejoin="round"/>
</svg>
